<svg id="Layer_1" data-name="Layer 1" xmlns="http://www.w3.org/2000/svg" viewBox="0 0 499.88 500">
    <path
        d="M346.47,303.26H120A68.88,68.88,0,0,0,51.1,372.14V500H0V369.75A117.58,117.58,0,0,1,117.58,252.17H346.79c57.52,0,104.43-47.6,101.89-105a100.53,100.53,0,0,0-100.43-96H.1A.11.11,0,0,1,0,51V.1A.11.11,0,0,1,.1,0H348.25a151.63,151.63,0,0,1,151.6,148.55C501.55,233.76,431.69,303.26,346.47,303.26Z" />
    <path
        d="M331.42,243.12a.11.11,0,0,1-.09.15H277.86s-.08,0-.09-.05L172.22,60.4a.1.1,0,0,1,.09-.15h53.47a.11.11,0,0,1,.08,0Z" />
    <path d="M484.67,500H431L322.51,312.16a.11.11,0,0,1,.1-.16h53.47s.06,0,.09.06Z" />
    <path
        d="M159.55,243.12a.1.1,0,0,1-.09.15H106a.09.09,0,0,1-.09-.05L.35,60.4a.1.1,0,0,1,.09-.15H53.91a.13.13,0,0,1,.09,0Z" />
    <path d="M312.81,500H259.09L150.64,312.16a.11.11,0,0,1,.09-.16H204.2a.12.12,0,0,1,.1.06Z" />
    <path
        d="M204.3,312.06,312.81,500H259.09L150.64,312.16a.11.11,0,0,1,.09-.16H204.2A.12.12,0,0,1,204.3,312.06Z" />
    <path
        d="M376.17,312.06,484.67,500H431L322.51,312.16a.11.11,0,0,1,.1-.16h53.47S376.14,312,376.17,312.06Z" />
    <path
        d="M105.89,243.22.35,60.4a.1.1,0,0,1,.09-.15H53.91a.13.13,0,0,1,.09,0L159.55,243.12a.1.1,0,0,1-.09.15H106A.09.09,0,0,1,105.89,243.22Z" />
    <path
        d="M277.86,243.27s-.08,0-.09-.05L172.22,60.4a.1.1,0,0,1,.09-.15h53.47a.11.11,0,0,1,.08,0L331.42,243.12a.11.11,0,0,1-.09.15Z" />
    <path
        d="M346.47,303.26H120A68.88,68.88,0,0,0,51.1,372.14V500H0V369.75A117.58,117.58,0,0,1,117.58,252.17H346.79c57.52,0,104.43-47.6,101.89-105a100.53,100.53,0,0,0-100.43-96H.1A.11.11,0,0,1,0,51V0H348.25a151.63,151.63,0,0,1,151.6,148.55C501.55,233.76,431.69,303.26,346.47,303.26Z" />
</svg>